<?xml version="1.0" standalone="no"?><!DOCTYPE svg PUBLIC "-//W3C//DTD SVG 1.1//EN" "http://www.w3.org/Graphics/SVG/1.1/DTD/svg11.dtd"><svg t="1682044802851" class="icon" viewBox="0 0 1024 1024" version="1.1" xmlns="http://www.w3.org/2000/svg" p-id="1235" xmlns:xlink="http://www.w3.org/1999/xlink" width="200" height="200"><path d="M566.43548377 743.35080683H457.56451623v-136.08871025c0-78.30544318 33.1512094-117.71673377 112.95362906-171.8256047l6.17842694-4.19153247C633.01008035 393.03125 648.08870941 374.52318588 648.08870941 335.08467777A136.08870941 136.08870941 0 0 0 375.91129059 335.08467777H267.04032223a244.95967777 244.95967777 0 1 1 489.91935554 0c0 85.87197565-35.65524188 129.58366965-119.13205682 186.22378976l-6.20564531 4.21875C579.36391152 560.99193588 566.43548377 576.34274187 566.43548377 607.26209659v136.08871024z m-54.43548377 190.52419317a68.04435471 68.04435471 0 1 1 0-136.0887094 68.04435471 68.04435471 0 0 1 0 136.0887094z" fill="#F29E12" p-id="1236"></path></svg>