<svg width="200" height="200" viewBox="0 0 200 200" fill="none" xmlns="http://www.w3.org/2000/svg">
<path d="M25.592 51.872C25.592 62.9175 29.9798 73.5106 37.7902 81.3209C45.6005 89.1313 56.1936 93.5191 67.2391 93.5191C78.2846 93.5191 88.8777 89.1313 96.6881 81.3209C104.498 73.5106 108.886 62.9175 108.886 51.872C108.886 40.8265 104.498 30.2334 96.6881 22.423C88.8777 14.6127 78.2846 10.2249 67.2391 10.2249C56.1936 10.2249 45.6005 14.6127 37.7902 22.423C29.9798 30.2334 25.592 40.8265 25.592 51.872Z" fill="#F29E12" stroke="#F29E12" stroke-width="2"/>
<path d="M132.122 49.7239C131.23 47.5688 130.77 45.2589 130.77 42.9262L132.122 49.7239ZM132.122 49.7239C133.015 51.8791 134.323 53.8373 135.973 55.4867M132.122 49.7239L135.973 55.4867M135.973 55.4867C137.622 57.1362 139.581 58.4447 141.736 59.3374M135.973 55.4867L141.736 59.3374M141.736 59.3374C143.891 60.23 146.201 60.6895 148.533 60.6895M141.736 59.3374L148.533 60.6895M148.533 60.6895C150.866 60.6895 153.176 60.23 155.331 59.3374M148.533 60.6895L155.331 59.3374M155.331 59.3374C157.486 58.4447 159.444 57.1362 161.094 55.4867M155.331 59.3374L161.094 55.4867M161.094 55.4867C162.743 53.8373 164.052 51.8791 164.944 49.7239M161.094 55.4867L164.944 49.7239M164.944 49.7239C165.837 47.5688 166.296 45.2589 166.296 42.9262M164.944 49.7239L166.296 42.9262M166.296 42.9262C166.296 40.5935 165.837 38.2837 164.944 36.1285M166.296 42.9262L164.944 36.1285M164.944 36.1285C164.052 33.9734 162.743 32.0152 161.094 30.3657M164.944 36.1285L161.094 30.3657M161.094 30.3657C159.444 28.7162 157.486 27.4078 155.331 26.5151M161.094 30.3657L155.331 26.5151M155.331 26.5151C153.176 25.6224 150.866 25.1629 148.533 25.1629M155.331 26.5151L148.533 25.1629M148.533 25.1629C146.201 25.1629 143.891 25.6224 141.736 26.5151M148.533 25.1629L141.736 26.5151M141.736 26.5151C139.581 27.4078 137.622 28.7162 135.973 30.3657M141.736 26.5151L135.973 30.3657M135.973 30.3657C134.323 32.0152 133.015 33.9734 132.122 36.1285M135.973 30.3657L132.122 36.1285M132.122 36.1285C131.23 38.2837 130.77 40.5935 130.77 42.9262L132.122 36.1285Z" fill="#F29E12" stroke="#F29E12" stroke-width="3"/>
<path d="M106.635 112.595C106.756 112.31 106.916 111.935 107.112 111.479C107.59 110.365 108.281 108.771 109.13 106.851C110.829 103.008 113.16 97.8629 115.693 92.6437C118.229 87.4201 120.956 82.1428 123.448 78.0285C124.694 75.9694 125.868 74.2249 126.916 72.9304C127.441 72.2833 127.921 71.7649 128.35 71.3804C128.788 70.9884 129.129 70.7765 129.371 70.6857C135.652 68.3313 142.868 68.593 147.447 69.8999C149.191 70.4001 151.022 71.0565 152.718 71.725C156.007 73.0265 157.576 76.7746 156.196 80.0249C156.196 80.025 156.196 80.0251 156.196 80.0252L131.927 137.129L106.635 112.595ZM82.4962 127.082L82.4968 127.083L104.932 149.496C104.932 149.497 104.932 149.497 104.932 149.497C105.441 150.006 105.08 150.868 104.366 150.868H95.0151C94.9212 150.868 94.8891 150.868 94.8639 150.865L94.8449 150.864L94.8259 150.863L65.6205 149.327L65.6198 149.327C64.3778 149.262 63.1502 149.617 62.1335 150.333L62.7093 151.15L62.1335 150.333L31.4355 171.957C29.1363 173.574 26.3932 174.442 23.584 174.442H19.3245C16.2507 174.442 13.4788 172.594 12.2973 169.759L12.2966 169.758L11.6923 168.315C11.4063 167.631 11.3424 166.874 11.5095 166.152C11.6766 165.43 12.0664 164.778 12.6237 164.29L12.6238 164.29L52.4745 129.338C54.8948 127.216 58.0027 126.045 61.2231 126.045H79.9893H79.9906C80.4559 126.045 80.9167 126.136 81.3467 126.314C81.7766 126.492 82.1673 126.753 82.4962 127.082ZM93.3218 125.574L101.104 117.792L165.133 181.82L157.35 189.603L93.3218 125.574ZM165.323 73.7552L157.541 65.9726L183.768 39.746L191.55 47.5292L165.323 73.7552Z" fill="#F29E12" stroke="#F29E12" stroke-width="2"/>
</svg>
