<svg width="200" height="200" viewBox="0 0 200 200" fill="none" xmlns="http://www.w3.org/2000/svg">
<rect width="200" height="200" fill="#F5F5F5"/>
<mask id="path-1-outside-1_0_1" maskUnits="userSpaceOnUse" x="24.592" y="9.22488" width="86" height="86" fill="black">
<rect fill="white" x="24.592" y="9.22488" width="86" height="86"/>
<path d="M26.592 51.872C26.592 62.6523 30.8745 72.991 38.4973 80.6138C46.1201 88.2367 56.4588 92.5191 67.2391 92.5191C78.0194 92.5191 88.3582 88.2367 95.981 80.6138C103.604 72.991 107.886 62.6523 107.886 51.872C107.886 41.0917 103.604 30.753 95.981 23.1301C88.3582 15.5073 78.0194 11.2249 67.2391 11.2249C56.4588 11.2249 46.1201 15.5073 38.4973 23.1301C30.8745 30.753 26.592 41.0917 26.592 51.872Z"/>
</mask>
<path d="M26.592 51.872C26.592 62.6523 30.8745 72.991 38.4973 80.6138C46.1201 88.2367 56.4588 92.5191 67.2391 92.5191C78.0194 92.5191 88.3582 88.2367 95.981 80.6138C103.604 72.991 107.886 62.6523 107.886 51.872C107.886 41.0917 103.604 30.753 95.981 23.1301C88.3582 15.5073 78.0194 11.2249 67.2391 11.2249C56.4588 11.2249 46.1201 15.5073 38.4973 23.1301C30.8745 30.753 26.592 41.0917 26.592 51.872Z" fill="#F29E12"/>
<path d="M26.592 51.872C26.592 62.6523 30.8745 72.991 38.4973 80.6138C46.1201 88.2367 56.4588 92.5191 67.2391 92.5191C78.0194 92.5191 88.3582 88.2367 95.981 80.6138C103.604 72.991 107.886 62.6523 107.886 51.872C107.886 41.0917 103.604 30.753 95.981 23.1301C88.3582 15.5073 78.0194 11.2249 67.2391 11.2249C56.4588 11.2249 46.1201 15.5073 38.4973 23.1301C30.8745 30.753 26.592 41.0917 26.592 51.872Z" stroke="#F29E12" stroke-width="4" mask="url(#path-1-outside-1_0_1)"/>
<mask id="path-2-outside-2_0_1" maskUnits="userSpaceOnUse" x="129.27" y="23.6629" width="39" height="39" fill="black">
<rect fill="white" x="129.27" y="23.6629" width="39" height="39"/>
<path d="M132.27 42.9262C132.27 45.0619 132.691 47.1767 133.508 49.1499C134.325 51.1231 135.523 52.9159 137.034 54.4261C138.544 55.9363 140.337 57.1342 142.31 57.9515C144.283 58.7688 146.398 59.1895 148.533 59.1895C150.669 59.1895 152.784 58.7688 154.757 57.9515C156.73 57.1342 158.523 55.9363 160.033 54.4261C161.543 52.9159 162.741 51.1231 163.559 49.1499C164.376 47.1767 164.796 45.0619 164.796 42.9262C164.796 40.7905 164.376 38.6757 163.559 36.7025C162.741 34.7294 161.543 32.9365 160.033 31.4264C158.523 29.9162 156.73 28.7182 154.757 27.9009C152.784 27.0836 150.669 26.6629 148.533 26.6629C146.398 26.6629 144.283 27.0836 142.31 27.9009C140.337 28.7182 138.544 29.9162 137.034 31.4264C135.523 32.9365 134.325 34.7294 133.508 36.7025C132.691 38.6757 132.27 40.7905 132.27 42.9262Z"/>
</mask>
<path d="M132.27 42.9262C132.27 45.0619 132.691 47.1767 133.508 49.1499C134.325 51.1231 135.523 52.9159 137.034 54.4261C138.544 55.9363 140.337 57.1342 142.31 57.9515C144.283 58.7688 146.398 59.1895 148.533 59.1895C150.669 59.1895 152.784 58.7688 154.757 57.9515C156.73 57.1342 158.523 55.9363 160.033 54.4261C161.543 52.9159 162.741 51.1231 163.559 49.1499C164.376 47.1767 164.796 45.0619 164.796 42.9262C164.796 40.7905 164.376 38.6757 163.559 36.7025C162.741 34.7294 161.543 32.9365 160.033 31.4264C158.523 29.9162 156.73 28.7182 154.757 27.9009C152.784 27.0836 150.669 26.6629 148.533 26.6629C146.398 26.6629 144.283 27.0836 142.31 27.9009C140.337 28.7182 138.544 29.9162 137.034 31.4264C135.523 32.9365 134.325 34.7294 133.508 36.7025C132.691 38.6757 132.27 40.7905 132.27 42.9262Z" fill="#F29E12"/>
<path d="M132.27 42.9262C132.27 45.0619 132.691 47.1767 133.508 49.1499C134.325 51.1231 135.523 52.9159 137.034 54.4261C138.544 55.9363 140.337 57.1342 142.31 57.9515C144.283 58.7688 146.398 59.1895 148.533 59.1895C150.669 59.1895 152.784 58.7688 154.757 57.9515C156.73 57.1342 158.523 55.9363 160.033 54.4261C161.543 52.9159 162.741 51.1231 163.559 49.1499C164.376 47.1767 164.796 45.0619 164.796 42.9262C164.796 40.7905 164.376 38.6757 163.559 36.7025C162.741 34.7294 161.543 32.9365 160.033 31.4264C158.523 29.9162 156.73 28.7182 154.757 27.9009C152.784 27.0836 150.669 26.6629 148.533 26.6629C146.398 26.6629 144.283 27.0836 142.31 27.9009C140.337 28.7182 138.544 29.9162 137.034 31.4264C135.523 32.9365 134.325 34.7294 133.508 36.7025C132.691 38.6757 132.27 40.7905 132.27 42.9262Z" stroke="#F29E12" stroke-width="6" mask="url(#path-2-outside-2_0_1)"/>
<mask id="path-3-inside-3_0_1" fill="white">
<path d="M132.277 138.862L157.116 80.416C158.716 76.6471 156.896 72.3022 153.084 70.7947C151.371 70.1191 149.508 69.4507 147.723 68.9387C142.965 67.5804 135.527 67.3102 129.02 69.7493C122.514 72.1884 105.447 112.836 105.447 112.836L132.277 138.862ZM83.2036 126.375C82.7816 125.953 82.2805 125.618 81.729 125.39C81.1774 125.162 80.5862 125.045 79.9893 125.045H61.2231C57.76 125.045 54.4178 126.304 51.8151 128.587L11.9645 163.538C11.2495 164.165 10.7496 165 10.5352 165.927C10.3209 166.853 10.4029 167.823 10.7698 168.7L11.3742 170.144C12.7111 173.351 15.8471 175.442 19.3245 175.442H23.584C26.5991 175.442 29.5431 174.51 32.0107 172.775L62.7093 151.15C63.543 150.563 64.5496 150.273 65.568 150.325L94.7733 151.861C94.8516 151.868 94.9298 151.868 95.0151 151.868H104.366C105.973 151.868 106.777 149.927 105.639 148.789L83.2036 126.375ZM91.9076 125.574L101.104 116.378L166.547 181.82L157.35 191.017L91.9076 125.574ZM156.127 65.9726L183.768 38.3317L192.964 47.5292L165.323 75.1694L156.127 65.9726Z"/>
</mask>
<path d="M132.277 138.862L157.116 80.416C158.716 76.6471 156.896 72.3022 153.084 70.7947C151.371 70.1191 149.508 69.4507 147.723 68.9387C142.965 67.5804 135.527 67.3102 129.02 69.7493C122.514 72.1884 105.447 112.836 105.447 112.836L132.277 138.862ZM83.2036 126.375C82.7816 125.953 82.2805 125.618 81.729 125.39C81.1774 125.162 80.5862 125.045 79.9893 125.045H61.2231C57.76 125.045 54.4178 126.304 51.8151 128.587L11.9645 163.538C11.2495 164.165 10.7496 165 10.5352 165.927C10.3209 166.853 10.4029 167.823 10.7698 168.7L11.3742 170.144C12.7111 173.351 15.8471 175.442 19.3245 175.442H23.584C26.5991 175.442 29.5431 174.51 32.0107 172.775L62.7093 151.15C63.543 150.563 64.5496 150.273 65.568 150.325L94.7733 151.861C94.8516 151.868 94.9298 151.868 95.0151 151.868H104.366C105.973 151.868 106.777 149.927 105.639 148.789L83.2036 126.375ZM91.9076 125.574L101.104 116.378L166.547 181.82L157.35 191.017L91.9076 125.574ZM156.127 65.9726L183.768 38.3317L192.964 47.5292L165.323 75.1694L156.127 65.9726Z" fill="#F29E12" stroke="#F29E12" stroke-width="4" mask="url(#path-3-inside-3_0_1)"/>
</svg>
