<svg width="207" height="200" viewBox="0 0 207 200" fill="none" xmlns="http://www.w3.org/2000/svg">
<path d="M74.4994 169.956L74.7848 170.213L75.1689 170.213L144.332 170.191L144.737 170.191L145.028 169.909L170.148 145.537H178.153V149.252V150.252H179.153H199.564H200.564V149.252V76.3107V75.3107H199.564H179.153H178.153V76.3107V82.3168H172.474L172.504 71.9878L172.507 70.9849H171.504H152.788L132.173 54.1255L131.897 53.8996H131.54H67.9665H67.6491L67.3898 54.0826L32.8363 78.4723L32.4129 78.7711V79.2892V96.4396H26.9697V76.3107V75.3107H25.9697H6.25H5.25V76.3107V149.252V150.252H6.25H25.9689H26.9689V149.252V131.416H32.4122V147.068V148.068H33.4122H50.1959L74.4994 169.956ZM185.966 89.1312V83.1243H192.751V142.439H185.966V138.725V137.725H184.966H167.386H166.98L166.69 138.007L141.569 162.378L77.784 162.398L53.4806 140.511L53.1953 140.254H52.8114H40.2258V124.603V123.603H39.2258H20.1553H19.1553V124.603V142.439H13.0636V83.1243H19.1553V103.253V104.253H20.1553H39.2258H40.2258V103.253V82.8203L70.1286 61.714H129.109L149.723 78.5733L149.999 78.7992H150.356H164.668L164.658 89.1302L164.657 90.1312H165.658H184.966H185.966V89.1312ZM115.766 51.074L115.766 50.0741L115.767 39.2233H137.431H138.431V38.2233V17.8329V16.8329H137.431H64.4897H63.4897V17.8329V38.2225V39.2225H64.4897H86.1536V50.074V51.074H87.1536H114.766H115.766ZM92.968 31.4089H71.3033V24.6465H130.617V31.4089H108.953H107.953V32.4089V43.2604H93.9673L93.968 32.409L93.968 31.4089H92.968Z" fill="#F29E12" stroke="#F29E12" stroke-width="2"/>
</svg>
