<?xml version="1.0" standalone="no"?><!DOCTYPE svg PUBLIC "-//W3C//DTD SVG 1.1//EN" "http://www.w3.org/Graphics/SVG/1.1/DTD/svg11.dtd"><svg t="1682044820639" class="icon" viewBox="0 0 1055 1024" version="1.1" xmlns="http://www.w3.org/2000/svg" p-id="1656" xmlns:xlink="http://www.w3.org/1999/xlink" width="206.0546875" height="200"><path d="M384.86328125 866.37109344l-125.89453125-113.38281188H171.07031281v-85.25781281h-38.109375v96.44140594H32V390.7109375h100.96484344v108.17968781h38.109375v-92.9296875l176.91406312-124.875h325.49609344l106.96093781 87.47656219h97.65624938l-0.16796813 58.01953125h39.328125V390.7109375h104.50390594v373.46093719h-104.50390594v-24.140625H869.08203125l-130.10546906 126.22656281-354.11328094 0.11328094z m-184.02734344-143.14843688h69.55859344l125.89453125 113.37499969 330.62109375-0.10156219 130.10546906-126.22656281h90.00781219v24.140625h44.98046906V420.4765625h-44.98046906v35.87500031h-98.85546844l0.05468719-58.01953125h-78.3984375l-106.96093781-87.47656312h-305.42968688L200.83593781 421.38671844v107.26953187H103.19531281V420.4765625H61.765625v313.93359375h41.42968781v-96.44140594h97.640625v85.25390625z m201.28906219 34.640625l-23.12109375-17.9296875 68.09765625-132.42968812 16.54296844-32.78515594-148.36328063 28.42578094 222.49609313-217.1015625 105.73437562 0.17187562-70.51953187 84.76171875 159.5859375-20.7421875-89.0390625 87.82421813-126.78515625 117.92578125-114.62890594 101.87890687z m115.359375-223.76953125l-43.86328125 86.92187438-31.71484406 61.67187562 54.82421906-48.71875031 126.375-117.55468781 25.60937531-25.26171844-147.13281281 19.125 78.53125031-94.39843781-30.24218812-0.05078063-142.90234313 139.44140625 110.51562469-21.17578125z m70.11718781-277.71484406h-141.375V195.69921875H330.18750031V91.30468719h373.45703063v104.39843812h-116.0390625v60.67578094z m-111.609375-29.765625h81.84765563V165.93359375h116.0390625V121.07031219H359.95312531v44.86328156h116.04296813v60.6796875z" fill="#F29E12" p-id="1657"></path></svg>