<svg width="200" height="200" viewBox="0 0 200 200" fill="none" xmlns="http://www.w3.org/2000/svg">
<path d="M148.572 179.717L149.102 180.565L149.95 180.035C177.742 162.659 194.333 132.739 194.333 100C194.333 68.3313 178.565 38.9456 152.167 21.3939L151.334 20.8404L150.781 21.6728L144.874 30.5528L144.32 31.3856L145.153 31.9394C168.015 47.141 181.667 72.5821 181.667 100C181.667 128.348 167.305 154.248 143.237 169.292L142.389 169.822L142.919 170.67L148.572 179.717ZM50.0496 180.041L50.8978 180.572L51.428 179.723L57.0814 170.677L57.6111 169.829L56.7635 169.299C32.6954 154.248 18.3333 128.348 18.3333 100C18.3333 72.5821 31.9853 47.141 54.847 31.9394L55.6799 31.3856L55.126 30.5528L49.2193 21.6728L48.6656 20.8404L47.833 21.3939C21.4347 38.9456 5.66667 68.3313 5.66667 100C5.66667 132.739 22.2647 162.659 50.0496 180.041Z" fill="#F29E12" stroke="#F29E12" stroke-width="2"/>
<path d="M29 100C29 139.152 60.8477 171 100 171C139.152 171 171 139.152 171 100C171 60.8477 139.152 29 100 29C60.8477 29 29 60.8477 29 100ZM41.6667 100C41.6667 67.839 67.839 41.6667 100 41.6667C132.168 41.6667 158.333 67.8389 158.333 100C158.333 132.168 132.168 158.333 100 158.333C67.8389 158.333 41.6667 132.168 41.6667 100Z" fill="#F29E12" stroke="#F29E12" stroke-width="2"/>
<path d="M47.9654 120.996L47.7476 121.653H48.44H55.2267H55.5987L55.7056 121.297L59.212 109.607H73.1397L76.5938 121.295L76.6997 121.653H77.0733H84.1333H84.8257L84.608 120.996L70.6013 78.7161L70.4877 78.3733H70.1267H62.4467H62.0856L61.972 78.7161L47.9654 120.996ZM67.7246 91.3795L67.7247 91.3799C68.3722 93.7228 69.0467 96.0468 69.7614 98.3516L71.2509 103.393H61.0521L62.5653 98.3514C62.5653 98.3512 62.5654 98.3511 62.5654 98.3509C63.2597 96.0545 63.934 93.7312 64.5816 91.3945C65.1164 89.4843 65.6425 87.5468 66.1525 85.5858C66.6721 87.5303 67.1961 89.4616 67.7246 91.3795ZM87.42 78.3733H86.92V78.8733V121.153V121.16V121.66H87.42H101.513C104.681 121.66 107.515 121.2 110.021 120.269C112.537 119.334 114.539 117.915 116.004 115.997C117.483 114.06 118.207 111.64 118.207 108.773C118.207 105.807 117.392 103.405 115.716 101.636C114.314 100.156 112.587 99.1087 110.557 98.4985C112.08 97.7746 113.309 96.6627 114.238 95.1635C115.354 93.3647 115.913 91.4068 115.913 89.2933C115.913 86.6686 115.251 84.5116 113.877 82.8663C112.524 81.2451 110.674 80.0973 108.343 79.4009C106.034 78.7109 103.418 78.3733 100.507 78.3733H87.42ZM106.412 94.4395L106.411 94.4402C105.111 95.4621 102.924 96.0267 99.7467 96.0267H94.56V84.5867H99.9133C102.872 84.5867 105 85.0443 106.376 85.8982C107.685 86.7101 108.38 88.083 108.38 90.1667C108.38 92.0082 107.719 93.4167 106.412 94.4395ZM119.033 115.369L118.736 115.717L119.056 116.043C121.024 118.052 123.347 119.616 126.013 120.734C128.683 121.854 131.502 122.413 134.46 122.413C137.6 122.413 140.333 121.842 142.643 120.694L142.644 120.694C144.928 119.552 146.707 118.008 147.954 116.063C149.2 114.121 149.827 111.967 149.827 109.613C149.827 106.427 148.996 103.883 147.271 102.045L147.271 102.044C145.596 100.266 143.476 98.8428 140.923 97.7535L140.922 97.7532L135.122 95.2865L135.116 95.2839C133.989 94.8224 132.907 94.3277 131.87 93.8128C130.881 93.3184 130.078 92.7042 129.467 91.9888C128.899 91.3237 128.593 90.44 128.593 89.3C128.593 87.7924 129.17 86.631 130.337 85.7689L130.338 85.7682C131.52 84.8906 133.132 84.4267 135.207 84.4267C137.013 84.4267 138.628 84.749 140.055 85.3895L140.056 85.3898C141.512 86.0406 142.883 86.9384 144.175 88.0812L144.564 88.4247L144.893 88.0241L148.393 83.7641L148.679 83.4159L148.362 83.0953C146.708 81.4199 144.733 80.0911 142.444 79.1073C140.148 78.1201 137.734 77.6267 135.2 77.6267C132.462 77.6267 130.006 78.1459 127.834 79.2039C125.671 80.258 123.954 81.6995 122.707 83.532C121.454 85.3721 120.827 87.4644 120.827 89.78C120.827 91.8918 121.276 93.7184 122.198 95.2512L122.199 95.2526C123.105 96.7461 124.237 97.9908 125.615 98.9728C126.896 99.9023 128.275 100.687 129.729 101.313C129.729 101.313 129.729 101.313 129.729 101.313L135.575 103.829C135.576 103.83 135.577 103.83 135.578 103.831C136.857 104.407 138.006 104.962 139.021 105.496C139.994 106.008 140.738 106.623 141.273 107.339L141.274 107.341C141.777 108.01 142.053 108.933 142.053 110.147C142.053 111.768 141.429 113.064 140.169 114.069C138.902 115.073 137.062 115.613 134.567 115.613C132.61 115.613 130.681 115.178 128.769 114.299C126.848 113.416 125.15 112.243 123.658 110.771L123.275 110.393L122.926 110.802L119.033 115.369ZM100.787 115.44H94.56V102.04H100.787C104.11 102.04 106.57 102.588 108.244 103.619C109.856 104.621 110.68 106.181 110.68 108.407C110.68 110.868 109.823 112.601 108.169 113.704C106.463 114.841 104.021 115.44 100.787 115.44Z" fill="#F29E12" stroke="#F29E12"/>
</svg>
