<?xml version="1.0" standalone="no"?><!DOCTYPE svg PUBLIC "-//W3C//DTD SVG 1.1//EN" "http://www.w3.org/Graphics/SVG/1.1/DTD/svg11.dtd"><svg t="1682044816608" class="icon" viewBox="0 0 1024 1024" version="1.1" xmlns="http://www.w3.org/2000/svg" p-id="1515" xmlns:xlink="http://www.w3.org/1999/xlink" width="200" height="200"><path d="M344.26424889 265.58464m-208.11320889 0a208.11320889 208.11320889 0 1 0 416.22641778 0 208.11320889 208.11320889 0 1 0-416.22641778 0Z" fill="#F29E12" p-id="1516"></path><path d="M760.49066667 219.78225778m-83.26712889 0a83.26712889 83.26712889 0 1 0 166.53425777 0 83.26712889 83.26712889 0 1 0-166.53425777 0Z" fill="#F29E12" p-id="1517"></path><path d="M677.25994667 710.97457778l127.17624888-299.24465778c8.192-19.29671111-1.12867555-41.54254222-20.64384-49.26122667-8.77454222-3.45884445-18.31367111-6.88128-27.45230222-9.50272-24.35754667-6.95409778-62.44124445-8.33763555-95.75537778 4.15061334-33.31413333 12.48824889-120.69546667 220.60145778-120.69546666 220.60145778l137.37073778 133.25653333zM426.00220445 647.04056889a23.22523022 23.22523022 0 0 0-16.45681778-6.80846222h-96.08305778c-17.73112889 0-34.84330667 6.44437333-48.16896 18.13162666L61.25795555 837.31342222a23.232512 23.232512 0 0 0-6.11669333 26.43285333l3.09475556 7.39100445c6.84487111 16.42040889 22.90119111 27.12462222 40.70513777 27.12462222h21.80892445c15.43736889 0 30.51064889-4.76956445 43.14453333-13.65333333l157.17717334-110.71943111a23.31989333 23.31989333 0 0 1 14.63637333-4.22343111l149.53130667 7.86432c0.40049778 0.03640889 0.80099555 0.03640889 1.23790222 0.03640888h47.87768889c8.22840889 0 12.34261333-9.93962667 6.51719111-15.76504888l-114.87004444-114.76081778zM470.56668445 642.940928l47.087616-47.087616 335.06736355 335.06736355-47.087616 47.087616zM799.37171911 337.77982578l141.52135111-141.52135111 47.08397511 47.09125688-141.52135111 141.51771023z" fill="#F29E12" p-id="1518"></path></svg>