<?xml version="1.0" standalone="no"?><!DOCTYPE svg PUBLIC "-//W3C//DTD SVG 1.1//EN" "http://www.w3.org/Graphics/SVG/1.1/DTD/svg11.dtd"><svg t="1682044810143" class="icon" viewBox="0 0 1024 1024" version="1.1" xmlns="http://www.w3.org/2000/svg" p-id="1374" xmlns:xlink="http://www.w3.org/1999/xlink" width="200" height="200"><path d="M765.0304 917.43573333l-28.94506667-46.31893333C860.80853333 793.15626667 935.25333333 658.90986667 935.25333333 512c0-142.09706667-70.7584-273.95413333-189.2352-352.73386667l30.24213334-45.4656C909.99466667 202.71786667 989.86666667 351.57333333 989.86666667 512c0 165.85386667-84.03626667 317.40586667-224.83626667 405.43573333zM258.9696 917.46986667C118.20373333 829.40586667 34.13333333 677.85386667 34.13333333 512c0-160.42666667 79.872-309.28213333 213.6064-398.19946667l30.24213334 45.4656C159.50506667 238.04586667 88.74666667 369.90293333 88.74666667 512c0 146.90986667 74.4448 281.15626667 199.168 359.15093333l-28.94506667 46.31893334z" fill="#F29E12" p-id="1375"></path><path d="M512 870.4c-197.632 0-358.4-160.768-358.4-358.4S314.368 153.6 512 153.6s358.4 160.768 358.4 358.4-160.768 358.4-358.4 358.4z m0-662.18666667c-167.49226667 0-303.78666667 136.2944-303.78666667 303.78666667 0 167.5264 136.2944 303.78666667 303.78666667 303.78666667 167.5264 0 303.78666667-136.26026667 303.78666667-303.78666667 0-167.49226667-136.26026667-303.78666667-303.78666667-303.78666667z" fill="#F29E12" p-id="1376"></path><path d="M248.0128 620.30506667l71.71413333-216.4736h39.3216l71.71413334 216.4736h-36.1472l-18.2272-61.67893334H301.2608l-18.50026667 61.67893334H248.0128z m69.87093333-117.48693334l-8.73813333 29.11573334h59.0848l-8.6016-29.11573334c-3.65226667-11.776-7.09973333-23.6544-10.41066667-35.6352-3.31093333-12.01493333-6.58773333-24.13226667-9.8304-36.352h-1.4336c-3.14026667 12.32213333-6.41706667 24.4736-9.76213333 36.42026667-3.31093333 11.94666667-6.7584 23.82506667-10.30826667 35.56693333zM447.5904 620.30506667v-216.4736h67.00373333c14.71146667 0 27.8528 1.70666667 39.38986667 5.15413333 11.53706667 3.44746667 20.54826667 9.07946667 27.10186667 16.93013333 6.5536 7.85066667 9.8304 18.26133333 9.8304 31.26613334 0 10.3424-2.73066667 19.89973333-8.192 28.70613333-5.46133333 8.8064-13.0048 14.81386667-22.66453334 18.09066667v1.4336c12.32213333 2.6624 22.528 8.26026667 30.54933334 16.72533333s12.04906667 20.0704 12.04906666 34.78186667c0 14.2336-3.584 26.04373333-10.752 35.4304-7.168 9.38666667-16.9984 16.384-29.4912 21.02613333s-26.69226667 6.9632-42.66666666 6.9632h-72.15786667z m33.9968-126.08853334h29.11573333c16.45226667 0 28.3648-2.90133333 35.70346667-8.66986666 7.3728-5.76853333 11.0592-13.75573333 11.0592-23.89333334 0-11.29813333-3.82293333-19.28533333-11.4688-24.02986666-7.64586667-4.74453333-19.11466667-7.09973333-34.44053333-7.09973334h-29.96906667v63.6928z m0 99.39626667h34.44053333c16.82773333 0 29.9008-3.10613333 39.2192-9.3184 9.3184-6.21226667 13.99466667-15.9744 13.99466667-29.25226667 0-12.15146667-4.57386667-21.02613333-13.68746667-26.69226666-9.14773333-5.632-22.28906667-8.46506667-39.5264-8.46506667h-34.44053333v73.728zM688.4352 624.19626667c-14.81386667 0-28.91093333-2.79893333-42.25706667-8.3968-13.34613333-5.59786667-24.95146667-13.4144-34.78186666-23.4496l19.93386666-23.38133334c7.85066667 7.74826667 16.7936 13.9264 26.89706667 18.56853334s20.34346667 6.9632 30.75413333 6.9632c13.1072 0 23.17653333-2.83306667 30.27626667-8.46506667 7.0656-5.632 10.61546667-13.0048 10.61546667-22.08426667 0-6.58773333-1.50186667-11.91253333-4.5056-15.90613333-3.00373333-4.02773333-7.13386667-7.40693333-12.3904-10.17173333s-11.19573333-5.632-17.78346667-8.6016l-29.96906667-12.9024a107.07626667 107.07626667 0 0 1-20.5824-11.70773334c-6.7584-4.8128-12.32213333-10.92266667-16.7936-18.29546666-4.43733333-7.3728-6.656-16.24746667-6.656-26.69226667 0-11.3664 3.072-21.57226667 9.18186667-30.54933333 6.10986667-8.97706667 14.5408-16.0768 25.25866667-21.2992 10.71786667-5.2224 22.90346667-7.81653333 36.59093333-7.81653334 12.62933333 0 24.64426667 2.4576 36.07893333 7.3728 11.43466667 4.9152 21.26506667 11.53706667 29.4912 19.8656l-17.92 21.8112c-6.79253333-6.00746667-14.0288-10.752-21.74293333-14.19946666-7.68-3.44746667-16.31573333-5.15413333-25.87306667-5.15413334-10.99093333 0-19.83146667 2.4576-26.45333333 7.3728-6.656 4.9152-9.96693333 11.63946667-9.96693333 20.13866667 0 6.31466667 1.70666667 11.4688 5.08586666 15.42826667 3.3792 3.95946667 7.7824 7.30453333 13.1072 9.96693333 5.35893333 2.6624 10.9568 5.2224 16.7936 7.61173333l29.696 12.62933334c12.8 5.46133333 23.3472 12.56106667 31.6416 21.36746666 8.26026667 8.8064 12.3904 21.12853333 12.3904 37.00053334 0 11.5712-3.072 22.1184-9.18186666 31.6416-6.10986667 9.5232-14.848 17.13493333-26.18026667 22.80106666-11.40053333 5.66613333-24.9856 8.53333333-40.7552 8.53333334z" fill="#F29E12" p-id="1377"></path></svg>